<svg width="264" height="116" viewBox="0 0 264 116" fill="none" xmlns="http://www.w3.org/2000/svg">
<path d="M127 36.8864V23.1818H186.011V36.8864H164.841V93H148.205V36.8864H127ZM210.105 23.1818L225.719 74.3182H226.298L241.912 23.1818H260.798L237.241 93H214.776L191.219 23.1818H210.105Z" fill="white"/>
<path d="M5.28409 23.1818H26.1818L43.9091 66.4091H44.7273L62.4545 23.1818H83.3523V93H66.9205V50.1136H66.3409L49.5682 92.5568H39.0682L22.2955 49.875H21.7159V93H5.28409V23.1818ZM104.071 112.636C102.071 112.636 100.185 112.477 98.4119 112.159C96.6392 111.864 95.1165 111.466 93.8438 110.966L97.5256 98.8636C99.1619 99.4091 100.639 99.7273 101.957 99.8182C103.298 99.9091 104.446 99.6932 105.401 99.1705C106.378 98.6705 107.128 97.7727 107.651 96.4773L108.298 94.9091L89.6847 40.6364H107.139L116.787 78H117.332L127.116 40.6364H144.673L124.935 98.0114C123.98 100.875 122.628 103.398 120.878 105.58C119.151 107.784 116.912 109.511 114.162 110.761C111.435 112.011 108.071 112.636 104.071 112.636Z" fill="white"/>
</svg>
